<svg xmlns="http://www.w3.org/2000/svg" version="1.1" xmlns:xlink="http://www.w3.org/1999/xlink" xmlns:svgjs="http://svgjs.com/svgjs" width="1440" height="2000" preserveAspectRatio="none" viewBox="0 0 1440 2000"><g mask="url(&quot;#SvgjsMask1001&quot;)" fill="none"><rect width="1440" height="2000" x="0" y="0" fill="rgba(153, 42, 241, 1)"></rect><path d="M0,494.647C104.473,490.666,209.357,515.265,306.811,477.407C417.443,434.43,547.019,379.638,585.277,267.287C623.713,154.415,512.784,46.713,493.542,-70.961C474.841,-185.327,534.719,-312.109,474.358,-411.033C412.096,-513.072,292.845,-577.818,174.408,-593.978C61.576,-609.373,-45.65,-550.319,-145.524,-495.61C-229.391,-449.67,-277.978,-365.388,-352.435,-305.386C-448.323,-228.114,-606.243,-209.554,-645.385,-92.792C-683.773,21.72,-594.733,139.155,-537.026,245.252C-482.685,345.16,-425.363,453.47,-322.213,501.373C-222.765,547.557,-109.569,498.822,0,494.647" fill="#7d0ed4"></path><path d="M1440 2908.927C1612.31 2908.939 1788.313 2857.8940000000002 1919.662 2746.368 2044.158 2640.661 2078.616 2470.766 2136.0879999999997 2317.893 2189.557 2175.666 2251.7690000000002 2036.177 2243.696 1884.446 2235.147 1723.7649999999999 2199.499 1554.624 2089.241 1437.429 1980.397 1321.737 1809.681 1304.788 1657.028 1260.87 1505.253 1217.204 1353.285 1144.846 1199.666 1181.499 1043.109 1218.854 905.418 1325.897 818.025 1461.056 735.754 1588.2930000000001 738.818 1747.273 735.885 1898.763 733.263 2034.196 767.266 2160.446 801.95 2291.388 843.914 2449.815 842.614 2632.323 960.38 2746.303 1084.19 2866.133 1267.6970000000001 2908.915 1440 2908.927" fill="#b25ff5"></path></g><defs><mask id="SvgjsMask1001"><rect width="1440" height="2000" fill="#ffffff"></rect></mask></defs></svg>